<?xml version="1.0" encoding="utf-8"?>
<!-- Generator: Adobe Illustrator 15.1.0, SVG Export Plug-In . SVG Version: 6.00 Build 0)  -->
<!DOCTYPE svg PUBLIC "-//W3C//DTD SVG 1.1//EN" "http://www.w3.org/Graphics/SVG/1.1/DTD/svg11.dtd">
<svg version="1.1" id="Layer_1" xmlns="http://www.w3.org/2000/svg" xmlns:xlink="http://www.w3.org/1999/xlink" x="0px" y="0px"
	 width="300px" height="450px" viewBox="0 0 300 450" enable-background="new 0 0 300 450" xml:space="preserve">
<path fill="#32FF32" d="M70.982,72.113c4.942-5.115,9.722-10.392,15.085-15.084c21.777-17.444,48.68-29.762,85.983-31.679
	c37.434,0.991,79.321-1.988,115.401,1.508c-5.56,37.936-11.708,75.284-17.348,113.137c-25.395,0.502-52.797-1.006-76.934,0.754
	c-17.79-2.479-38.631,10.96-31.679,30.17c2.318,6.403,9.07,8.891,18.855,9.051c1.291,1.728,5.758,0.277,8.298,0.754
	c20.869,1.761,45.003,0.253,67.128,0.754c-3.941,28.997-9.182,56.691-12.823,85.984c-0.915-0.399-0.464,1.341-0.752,1.51
	c-7.084,4.116-27.099,0.754-39.223,0.754c-14.97,0-28.718-0.603-39.221,0.754c-19.126-3.397-37.86,13.547-30.17,31.679
	c2.385,5.622,9.551,6.896,18.102,7.543c1.784,1.736,6.769,0.271,9.806,0.754c24.529,0.943,61.515-1.912,82.213,1.509
	c-6.208,36.533-11.525,73.955-17.348,110.875c-0.877,0.126-0.818,1.192-0.754,2.263c-37.712,0-75.425,0-113.138,0
	c-54.649-5.236-94.954-29.5-98.806-85.985c-1.671-24.482,3.86-49.09,7.542-73.161c3.443-22.502,7.781-45.137,11.313-68.638
	c3.792-25.222,5.982-48.524,11.314-69.391C49.552,105.534,59.04,86.989,70.982,72.113z"/>
</svg>
