<?xml version="1.0" encoding="utf-8"?>
<!-- Generator: Adobe Illustrator 15.1.0, SVG Export Plug-In . SVG Version: 6.00 Build 0)  -->
<!DOCTYPE svg PUBLIC "-//W3C//DTD SVG 1.1//EN" "http://www.w3.org/Graphics/SVG/1.1/DTD/svg11.dtd">
<svg version="1.1" id="Layer_1" xmlns="http://www.w3.org/2000/svg" xmlns:xlink="http://www.w3.org/1999/xlink" x="0px" y="0px"
	 width="1550px" height="450px" viewBox="0 0 1550 450" enable-background="new 0 0 1550 450" xml:space="preserve">
<g>
	<g>
		<path fill-rule="evenodd" clip-rule="evenodd" fill="#ECECEC" d="M1423.04,44.521c23.52,0,47.04,0,70.56,0c0,0.96,0,1.92,0,2.88
			c-13.462,83.981-26.088,168.791-39.359,252.96c-22.563,0.799-48.478,0.799-71.04,0
			C1396.742,215.343,1409.445,129.487,1423.04,44.521z"/>
		<path fill-rule="evenodd" clip-rule="evenodd" fill="#89FF89" d="M159.68,45.481c18.555-0.863,44.272-0.48,66.24-0.48
			c3.433,0,8.287-0.922,7.2,1.44C210.158,44.216,183.502,46.112,159.68,45.481z"/>
		<path fill-rule="evenodd" clip-rule="evenodd" fill="#89FF89" d="M1318.4,45.481c23.359-0.8,50.079-0.8,73.439,0
			C1367.359,45.481,1342.88,45.481,1318.4,45.481z"/>
		<path fill-rule="evenodd" clip-rule="evenodd" fill="#ECECEC" d="M632,219.24c-35.52,0-71.04,0-106.56,0
			c-2.702-12.88,1.53-25.153,5.76-34.079c11.84,0,23.68,0,35.52,0c2.17-23.373-25.39-23.631-37.92-13.44
			c-15.64,12.721-23.401,47.164-12.48,63.839c2.098,3.205,7.76,7.776,12.48,8.641c13.74,2.516,19.596-5.467,27.36-10.08
			c10.834,16.205,22.121,31.959,32.64,48.48c-21.736,14.335-47.743,26.672-83.52,21.119c-38.471-5.971-67.06-37.885-67.2-79.68
			c-0.106-31.491,12.931-56.811,30.72-76.32c18.148-19.903,43.258-36.003,76.32-37.92C610.294,106.021,649.054,153.757,632,219.24z"
			/>
		<path fill-rule="evenodd" clip-rule="evenodd" fill="#ECECEC" d="M299.36,300.841c-23.68,0-47.36,0-71.04,0
			c3.241-20.675,6.994-42.079,10.08-63.36c3.121-21.514,4.651-43.633,11.52-61.919c6.46-17.198,17.456-31.756,30.72-42.72
			c16.915-13.981,38.078-25.917,71.521-23.04c39.149,3.368,60.479,32.873,60.479,70.56c0,19.568-5.304,40.053-8.16,60.48
			c-2.929,20.948-6.087,41.263-9.12,60c-23.52,0-47.04,0-70.56,0c4.382-29.994,8.229-58.065,13.44-89.28
			c1.151-6.893,5.629-23.686,0.96-29.28c-7.278-8.721-19.863,0.965-22.08,6.72c-2.727,7.079-3.435,19.514-4.8,29.28
			C308.625,244.705,303.156,275.203,299.36,300.841z"/>
		<path fill-rule="evenodd" clip-rule="evenodd" fill="#ECECEC" d="M779.84,111.721c-3.714,25.246-7.828,50.092-11.52,75.36
			c-19.631-11.52-32.839,4.463-36,23.04c-4.73,27.807-9.424,66.881-13.44,90.72c-23.68,0-47.36,0-71.04,0
			c4.217-28.761,8.834-58.831,13.44-86.88c2.459-14.979,3.869-28.874,8.64-41.28C684.701,134.244,720.989,100.756,779.84,111.721z"
			/>
		<path fill-rule="evenodd" clip-rule="evenodd" fill="#ECECEC" d="M800.479,380.041c3.596-21.045,6.483-42.797,10.08-63.84
			c23.912,14.486,52.72,5.648,64.32-13.439c8.847-14.559,10.438-36.428,13.44-57.121c1.383-9.539,3.176-19.854,4.8-30.72
			c2.141-14.328,4.688-28.667-4.8-35.04c-6.773-4.548-17.257-3.448-23.521-0.48c-11.39,5.398-22.472,22.007-15.84,36
			c4.651,9.816,19.491,14.554,33.6,7.68c-2.926,21.874-6.832,42.768-9.6,64.8c-12.216,4.031-22.692,6.951-38.4,5.76
			c-25.548-1.938-42.771-17.787-51.84-34.56c-10.273-19.001-11.56-47.294-3.84-71.52c6.667-20.921,19.75-37.453,35.521-50.88
			c20.595-17.536,45.761-29.745,83.52-26.88c34.265,2.6,62.329,24.094,67.68,57.6c2.38,14.901,1.026,31.584-1.439,46.08
			c-2.498,14.685-4.076,28.969-6.24,43.201c-4.523,29.739-9.913,53.512-23.52,74.879
			C910.574,368.977,861.453,401.703,800.479,380.041z"/>
		<path fill-rule="evenodd" clip-rule="evenodd" fill="#ECECEC" d="M1179.2,243.24c-8.854,15.949-20.392,27.793-34.561,38.4
			c-19.859,14.869-47.132,27.968-84,22.08c-35.032-5.594-64.904-35.332-67.68-73.439c-2.563-35.2,13.003-64.306,29.76-82.56
			c21.175-23.067,65.503-48.609,112.8-35.04c27.172,7.795,51.385,34.03,56.16,63.84
			C1195.294,199.081,1189.178,225.266,1179.2,243.24z M1073.6,190.441c-1.508,1.806-7.023,11.667-7.68,17.76
			c-2.063,19.146,13.382,30.559,30.72,25.439c7.845-2.315,16.734-10.152,20.16-17.76c8.525-18.93-2.742-39.214-24-36
			C1083.459,181.293,1077.074,186.284,1073.6,190.441z"/>
		<path fill-rule="evenodd" clip-rule="evenodd" fill="#89FF89" d="M173.12,118.921c15.36-1.12,32.799-0.16,48.96-0.48
			C206.72,119.561,189.28,118.601,173.12,118.921z"/>
		<path fill-rule="evenodd" clip-rule="evenodd" fill="#89FF89" d="M1331.359,118.921c15.521-1.12,33.12-0.16,49.44-0.48
			C1365.279,119.561,1347.68,118.601,1331.359,118.921z"/>
		<path fill-rule="evenodd" clip-rule="evenodd" fill="#56FF56" d="M170.24,144.361c14.081,0.32,29.44-0.64,42.72,0.48
			C198.879,144.521,183.521,145.48,170.24,144.361z"/>
		<path fill-rule="evenodd" clip-rule="evenodd" fill="#89FF89" d="M1313.12,201.481c15.68-1.12,33.439-0.16,49.92-0.48
			C1347.359,202.121,1329.6,201.161,1313.12,201.481z"/>
		<path fill-rule="evenodd" clip-rule="evenodd" fill="#89FF89" d="M1217.6,242.762c-0.798-1.774-0.798-6.867,0-8.641
			C1217.6,237.001,1217.6,239.881,1217.6,242.762z"/>
		<path fill-rule="evenodd" clip-rule="evenodd" fill="#D2FFD2" d="M125.6,300.361c22.72,0,45.44,0,68.16,0
			C172.16,301.161,147.2,301.161,125.6,300.361z"/>
		<path fill-rule="evenodd" clip-rule="evenodd" fill="#ECECEC" d="M993.439,306.121c1.785,2.41,3.852,3.408,4.32,6.24
			c2.306,13.912-19.613,18.502-21.6,6.72C974.661,310.194,982.443,303.58,993.439,306.121z"/>
		<path fill-rule="evenodd" clip-rule="evenodd" fill="#ECECEC" d="M1124,309.001c-5.422,21.157-2.727,50.93-15.84,64.8
			c-6.76,7.15-18.675,12.836-31.681,9.6c-11.898-2.959-19.841-15.756-16.319-30.719c3.47-14.746,17.948-26.125,37.439-24.961
			c0.386,7.131-2.423,15.158-2.88,23.041c-9.725-9.004-19.965,11.674-7.68,12.479c10.321,0.678,9.415-13.73,11.04-23.52
			c1.715-10.33,3.485-19.816,4.8-29.279c0-0.48,0-0.961,0-1.44C1109.92,309.001,1116.96,309.001,1124,309.001z"/>
		<path fill-rule="evenodd" clip-rule="evenodd" fill="#ECECEC" d="M1251.2,309.001c-1.217,6.783-2.014,13.987-3.36,20.64
			c2.88,0,5.76,0,8.64,0c-0.306,7.854-2.554,13.767-2.88,21.6c-2.88,0-5.76,0-8.64,0c-2.246,6.25,0.953,11.205,7.2,10.561
			c-0.211,7.949-2.07,14.25-2.88,21.6c-14.871,1.375-24.949-7.249-26.4-18.719c-2.074-16.396,6.929-39.48,7.2-54.24
			c0-0.48,0-0.961,0-1.44C1237.12,309.001,1244.16,309.001,1251.2,309.001z"/>
		<path fill-rule="evenodd" clip-rule="evenodd" fill="#ECECEC" d="M1295.84,328.201c0.19,6.617-2.283,14.656-2.88,22.08
			c-14.813-6.014-10.638,22.809-14.4,32.64c-6.88,0-13.76,0-20.64,0C1261.249,355.682,1262.06,323.393,1295.84,328.201z"/>
		<path fill-rule="evenodd" clip-rule="evenodd" fill="#ECECEC" d="M1046.24,383.4c-6.881,0-13.761,0-20.641,0
			c0.036-5.4,1.52-10.541,2.4-16.799c0.779-5.537,3.234-12.365,0.479-17.281c-6.513-0.369-5.723,9.066-6.72,14.881
			c-1.164,6.789-1.878,13.822-2.88,19.199c-6.895-0.305-15.021,0.621-21.12-0.479c2.904-11.219,2.195-24.251,5.28-34.56
			c2.74-9.16,11.513-17.561,20.16-19.68c16.202-3.973,29.055,5.195,28.319,21.6C1051.039,361.003,1047.342,373.049,1046.24,383.4z"
			/>
		<path fill-rule="evenodd" clip-rule="evenodd" fill="#ECECEC" d="M1296.32,405.48c0.031-6.527,1.73-11.389,2.399-17.279
			c8.56,3.479,17.811-0.201,20.16-7.2c-3.394,0.388-7.371,3.002-12.96,1.92c-19.709-3.814-6.5-38.218-5.28-54.239
			c6.88,0,13.761,0,20.641,0c-0.569,5.319-1.576,11.063-2.4,16.799c-0.778,5.417-3.433,11.852-0.479,16.32
			c6.451,0.646,5.803-8.379,6.72-13.92c1.104-6.664,2.128-13.699,2.88-19.199c6.88,0,13.76,0,20.64,0
			c-5.268,29.451-3.054,66.385-27.359,76.799C1312.96,405.48,1304.64,405.48,1296.32,405.48z"/>
		<path fill-rule="evenodd" clip-rule="evenodd" fill="#ECECEC" d="M995.359,329.161c-2.519,18.28-5.656,35.942-8.159,54.239
			c-7.04,0-14.08,0-21.12,0c2.834-18.125,5.12-36.799,8.64-54.239C981.6,329.161,988.479,329.161,995.359,329.161z"/>
		<path fill-rule="evenodd" clip-rule="evenodd" fill="#ECECEC" d="M1151.359,329.641c-0.466,4.235-8.115,30.203-3.84,34.08
			c5.722,5.189,6.4-9.033,7.2-14.88c0.875-6.397,2.77-13.506,2.88-19.2c7.04,0,14.08,0,21.12,0
			c-3.562,12.621-1.368,27.621-7.2,39.36c-5.1,10.267-20.377,20.568-35.04,14.399c-18.148-7.635-8.541-32.445-6.72-52.319
			c-0.021-0.821,0.357-1.243,0.96-1.44C1137.6,329.641,1144.479,329.641,1151.359,329.641z"/>
		<path fill-rule="evenodd" clip-rule="evenodd" fill="#ECECEC" d="M1223.84,329.641c-1.528,6.792-2.447,14.192-3.36,21.6
			c-2.052,0.028-3.516,0.645-5.279,0.961c-5.138,5.232-4.736,13.379-8.641,19.199c-5.735,8.553-14.717,13.486-30.239,12.961
			c0.22-7.939,2.151-14.169,2.88-21.6c12.767,1.303,10.546-12.538,15.359-21.121C1199.32,333.152,1208.031,328.258,1223.84,329.641z
			"/>
		<path fill-rule="evenodd" clip-rule="evenodd" fill="#D2FFD2" d="M152.96,226.921c0-0.159,0-0.319,0-0.479
			c10.927,0,26.764,0,40.32,0c3.539,0,13.35-0.892,12,1.439C192.107,225.704,168.57,227.521,152.96,226.921z"/>
		<path fill-rule="evenodd" clip-rule="evenodd" fill="#D2FFD2" d="M95.36,75.241c2.634-3.766,5.834-6.966,9.6-9.6
			C101.547,68.628,98.504,71.986,95.36,75.241z"/>
		<path fill-rule="evenodd" clip-rule="evenodd" fill="#D2FFD2" d="M1284.32,300.361c22.56-0.32,46.399,0.64,68.16-0.48
			c-0.079-0.559,0.105-0.854,0.479-0.96c-0.069,3.202-11.435,1.92-16.32,1.92C1319.662,300.841,1298.966,301.223,1284.32,300.361z"
			/>
		<path fill-rule="evenodd" clip-rule="evenodd" fill="#D2FFD2" d="M1311.68,226.921c0-0.159,0-0.319,0-0.479
			c16.175,0.617,38.357-1.243,52.32,0.959C1347.52,226.281,1328.96,227.24,1311.68,226.921z"/>
		<path fill-rule="evenodd" clip-rule="evenodd" fill="#89FF89" d="M154.4,201.481c6.684-0.864,15.433-0.48,24.96-0.48
			c7.715,0,20.453,2.139,24.96-0.48c0.184-0.107-0.104-1.215,0.48-0.96c-0.06,0.119,0.075,0.371,0,0.48
			c-2.368,3.474-18.215,1.44-24.48,1.44C170.136,201.481,161.413,201.481,154.4,201.481z"/>
		<path fill-rule="evenodd" clip-rule="evenodd" fill="#56FF56" d="M194.24,298.441c-0.04,0.76,0.231,1.83-0.48,1.92
			c-22.72,0-45.44,0-68.16,0c-1.148-0.293-3.483,0.602-3.84-0.48c24,0,48,0,72,0C193.719,299.199,193.681,298.521,194.24,298.441z"
			/>
		<path fill-rule="evenodd" clip-rule="evenodd" fill="#32FF32" d="M95.36,75.241c3.145-3.255,6.187-6.613,9.6-9.6
			c13.859-11.101,30.98-18.94,54.72-20.16c23.822,0.631,50.479-1.265,73.44,0.96c-3.538,24.142-7.451,47.91-11.04,72
			c-16.161,0.32-33.6-0.64-48.96,0.48c-11.321-1.578-24.584,6.975-20.16,19.2c1.475,4.075,5.773,5.658,12,5.76
			c0.821,1.099,3.664,0.176,5.28,0.48c13.281,1.12,28.64,0.161,42.72,0.48c-2.508,18.453-5.843,36.077-8.16,54.72
			c-0.583-0.255-0.296,0.853-0.48,0.96c-4.507,2.619-17.245,0.48-24.96,0.48c-9.527,0-18.276-0.384-24.96,0.48
			c-12.172-2.162-24.094,8.621-19.2,20.16c1.518,3.578,6.078,4.389,11.52,4.801c1.136,1.104,4.308,0.172,6.24,0.479
			c15.61,0.601,39.147-1.217,52.32,0.96c-3.951,23.25-7.335,47.064-11.04,70.561c-0.559,0.08-0.521,0.758-0.48,1.439
			c-24,0-48,0-72,0c-34.779-3.332-60.429-18.773-62.88-54.72c-1.063-15.581,2.457-31.241,4.8-46.56
			c2.191-14.32,4.952-28.724,7.2-43.68c2.413-16.051,3.807-30.881,7.2-44.16C81.722,96.51,87.76,84.708,95.36,75.241z"/>
		<path fill-rule="evenodd" clip-rule="evenodd" fill="#56FF56" d="M1328.96,144.361c6.255,0,22.69,0,32.64,0
			c4.004,0,12.629-1.425,9.601,3.36c1.974-4.396-6.237-2.88-10.561-2.88c-9.916,0-24.615,0.369-32.159-0.48
			C1328.64,144.361,1328.8,144.361,1328.96,144.361z"/>
		<path fill-rule="evenodd" clip-rule="evenodd" fill="#56FF56" d="M146.72,226.441c2.08,0,4.16,0,6.24,0c0,0.16,0,0.32,0,0.479
			C151.028,226.613,147.856,227.545,146.72,226.441z"/>
		<path fill-rule="evenodd" clip-rule="evenodd" fill="#56FF56" d="M1305.439,226.441c2.08,0,4.16,0,6.24,0c0,0.16,0,0.32,0,0.479
			C1309.748,226.613,1306.576,227.545,1305.439,226.441z"/>
		<path fill-rule="evenodd" clip-rule="evenodd" fill="#32FF32" d="M1217.6,234.121c1.926-18.639,5.639-41.676,9.12-62.88
			c3.567-21.725,4.967-43.607,10.08-62.4c10.438-38.36,38.244-59.849,81.601-63.36c24.479,0,48.959,0,73.439,0
			c-3.51,24.491-7.636,48.364-11.04,72.96c-16.32,0.32-33.92-0.64-49.44,0.48c-11.977-1.466-24.341,7.739-19.68,19.68
			c1.462,3.745,5.874,4.974,11.521,5.28c0.821,1.099,3.663,0.176,5.28,0.48c7.544,0.849,22.243,0.48,32.159,0.48
			c4.323,0,12.534-1.516,10.561,2.88c-2.708,17.772-5.575,35.385-8.16,53.28c-16.48,0.32-34.24-0.64-49.92,0.48
			c-5.638,0.57-9.74-0.25-13.92,2.4c-8.334,5.284-9.322,25.064,6.239,22.561c1.137,1.104,4.309,0.172,6.24,0.479
			c17.28,0.319,35.84-0.64,52.32,0.479c-3.979,23.541-7.676,47.365-11.04,71.521c-0.374,0.106-0.559,0.401-0.479,0.96
			c-24,0-48.001,0-72.001,0c-36.523-3.477-60.752-19.248-62.88-57.119C1217.6,239.881,1217.6,237.001,1217.6,234.121z"/>
		<path fill-rule="evenodd" clip-rule="evenodd" fill="#56FF56" d="M1280.479,299.881c24,0,48.001,0,72.001,0
			c-21.761,1.12-45.601,0.16-68.16,0.48C1283.172,300.068,1280.837,300.963,1280.479,299.881z"/>
		<path fill-rule="evenodd" clip-rule="evenodd" fill="#D2FFD2" d="M164.96,143.881c1.616,0.304,4.458-0.618,5.28,0.48
			C168.624,144.057,165.781,144.979,164.96,143.881z"/>
		<path fill-rule="evenodd" clip-rule="evenodd" fill="#D2FFD2" d="M1323.2,143.881c1.773,0.306,4.781-0.622,5.76,0.48
			c-0.16,0-0.32,0-0.479,0C1326.863,144.057,1324.021,144.979,1323.2,143.881z"/>
	</g>
</g>
</svg>
